<?xml version="1.0" encoding="utf-8"?>
<!-- Generator: Adobe Illustrator 23.0.1, SVG Export Plug-In . SVG Version: 6.00 Build 0)  -->
<svg version="1.1"
	 id="Layer_1" inkscape:version="0.92.3 (2405546, 2018-03-11)" sodipodi:docname="0205.svg" xmlns:cc="http://creativecommons.org/ns#" xmlns:dc="http://purl.org/dc/elements/1.1/" xmlns:inkscape="http://www.inkscape.org/namespaces/inkscape" xmlns:rdf="http://www.w3.org/1999/02/22-rdf-syntax-ns#" xmlns:sodipodi="http://sodipodi.sourceforge.net/DTD/sodipodi-0.dtd" xmlns:svg="http://www.w3.org/2000/svg"
	 xmlns="http://www.w3.org/2000/svg" xmlns:xlink="http://www.w3.org/1999/xlink" x="0px" y="0px" viewBox="0 0 50 25"
	 style="enable-background:new 0 0 50 25;" xml:space="preserve">
<style type="text/css">
	.st0{fill:#3EFF8C;}
	.st1{fill:#FFFFFF;}
	.st2{fill:none;}
	.st3{fill:none;stroke:#000000;stroke-width:0.5;stroke-miterlimit:10;}
	.st4{enable-background:new    ;}
</style>
<sodipodi:namedview  bordercolor="#666666" borderopacity="1" gridtolerance="10" guidetolerance="10" id="namedview95" inkscape:current-layer="Layer_1" inkscape:cx="39.361448" inkscape:cy="-4.0522541" inkscape:pageopacity="0" inkscape:pageshadow="2" inkscape:window-height="1001" inkscape:window-maximized="1" inkscape:window-width="1920" inkscape:window-x="-9" inkscape:window-y="-9" inkscape:zoom="6.2933335" objecttolerance="10" pagecolor="#ffffff" showgrid="false">
	</sodipodi:namedview>
<g id="g10">
	<path id="path4" inkscape:connector-curvature="0" class="st0" d="M-142.4,4.8h-28.4c-4.4,0-7.9,4.3-7.9,9.5s3.5,9.5,7.9,9.5h28.3
		c4.4,0,7.9-4.3,7.9-9.5S-138.1,4.8-142.4,4.8z"/>
	<path id="path6" inkscape:connector-curvature="0" class="st0" d="M-142,1.8h-29.2c-5.7,0-10.4,5.6-10.4,12.5s4.7,12.5,10.4,12.5
		h29.2c5.7,0,10.4-5.6,10.4-12.5S-136.3,1.8-142,1.8z M-142.4,24.8h-28.4c-4.8,0-8.8-4.7-8.8-10.5s4-10.5,8.8-10.5h28.3
		c4.8,0,8.8,4.7,8.8,10.5S-137.6,24.8-142.4,24.8z"/>
	<path id="path8" inkscape:connector-curvature="0" class="st1" d="M-142.4,3.8h-28.4c-4.8,0-8.8,4.7-8.8,10.5s4,10.5,8.8,10.5h28.3
		c4.8,0,8.8-4.7,8.8-10.5S-137.6,3.8-142.4,3.8z M-142.4,23.8h-28.4c-4.4,0-7.9-4.3-7.9-9.5s3.5-9.5,7.9-9.5h28.3
		c4.4,0,7.9,4.3,7.9,9.5S-138.1,23.8-142.4,23.8z"/>
</g>
<text id="text24" transform="matrix(1 0 0 1 -171.3714 16.743)" style="font-family:'RobotoMono-Regular'; font-size:8px;">01 / 05</text>
<path id="path26" inkscape:connector-curvature="0" class="st0" d="M39.2,3H10.8c-4.4,0-7.9,4.3-7.9,9.5S6.5,22,10.8,22h28.3
	c4.4,0,7.9-4.3,7.9-9.5S43.5,3,39.2,3z"/>
<path id="path28" inkscape:connector-curvature="0" class="st0" d="M39.6,0H10.4C4.7,0,0,5.6,0,12.5S4.7,25,10.4,25h29.2
	C45.3,25,50,19.4,50,12.5S45.3,0,39.6,0z M39.2,23H10.8C6,23,2.1,18.3,2.1,12.5S6,2,10.8,2h28.3c4.8,0,8.8,4.7,8.8,10.5
	S44,23,39.2,23z"/>
<path id="path30" inkscape:connector-curvature="0" class="st1" d="M39.2,2H10.8C6,2,2.1,6.7,2.1,12.5S6,23,10.8,23h28.3
	c4.8,0,8.8-4.7,8.8-10.5S44,2,39.2,2z M39.2,22H10.8c-4.4,0-7.9-4.3-7.9-9.5S6.5,3,10.8,3h28.3c4.4,0,7.9,4.3,7.9,9.5
	S43.5,22,39.2,22z"/>
<rect x="8.2" y="8" class="st2" width="33.6" height="9"/>
<g id="g1003" transform="translate(0,-275)">
	<g id="g42" transform="translate(-222.91841,-9.8875101)">
		<path id="path36" inkscape:connector-curvature="0" class="st0" d="M58.2,90H29.8c-4.4,0-7.9,4.3-7.9,9.5s3.5,9.5,7.9,9.5h28.3
			c4.4,0,7.9-4.3,7.9-9.5S62.5,90,58.2,90z"/>
		<path id="path38" inkscape:connector-curvature="0" class="st0" d="M58.6,87H29.4C23.7,87,19,92.6,19,99.5S23.7,112,29.4,112h29.2
			c5.7,0,10.4-5.6,10.4-12.5S64.3,87,58.6,87z M58.2,110H29.8c-4.8,0-8.8-4.7-8.8-10.5S25,89,29.8,89h28.3c4.8,0,8.8,4.7,8.8,10.5
			S63,110,58.2,110z"/>
		<path id="path40" inkscape:connector-curvature="0" class="st1" d="M58.2,89H29.8C25,89,21,93.7,21,99.5s4,10.5,8.8,10.5h28.3
			c4.8,0,8.8-4.7,8.8-10.5S63,89,58.2,89z M58.2,109H29.8c-4.4,0-7.9-4.3-7.9-9.5s3.5-9.5,7.9-9.5h28.3c4.4,0,7.9,4.3,7.9,9.5
			S62.5,109,58.2,109z"/>
	</g>
	<text id="text44" transform="matrix(1 0 0 1 -193.7192 92.0578)" style="font-family:'RobotoMono-Regular'; font-size:8px;">03 / 05</text>
</g>
<g id="g1015" transform="translate(0,-275)">
	<g id="g52" transform="translate(-222.91841,-9.8875101)">
		<path id="path46" inkscape:connector-curvature="0" class="st0" d="M58.2,132H29.8c-4.4,0-7.9,4.3-7.9,9.5s3.5,9.5,7.9,9.5h28.3
			c4.4,0,7.9-4.3,7.9-9.5S62.5,132,58.2,132z"/>
		<path id="path48" inkscape:connector-curvature="0" class="st0" d="M58.6,129H29.4c-5.8,0-10.4,5.6-10.4,12.5S23.7,154,29.4,154
			h29.2c5.7,0,10.4-5.6,10.4-12.5S64.3,129,58.6,129z M58.2,152H29.8c-4.8,0-8.8-4.7-8.8-10.5s4-10.5,8.8-10.5h28.3
			c4.8,0,8.8,4.7,8.8,10.5S63,152,58.2,152z"/>
		<path id="path50" inkscape:connector-curvature="0" class="st1" d="M58.2,131H29.8c-4.8,0-8.8,4.7-8.8,10.5s4,10.5,8.8,10.5h28.3
			c4.8,0,8.8-4.7,8.8-10.5S63,131,58.2,131z M58.2,151H29.8c-4.4,0-7.9-4.3-7.9-9.5s3.5-9.5,7.9-9.5h28.3c4.4,0,7.9,4.3,7.9,9.5
			S62.5,151,58.2,151z"/>
	</g>
	<text id="text54" transform="matrix(1 0 0 1 -193.7142 134.0578)" style="font-family:'RobotoMono-Regular'; font-size:8px;">04 / 05</text>
</g>
<g id="g1027" transform="translate(0,-275)">
	<g id="g62" transform="translate(-222.91841,-9.8875101)">
		<path id="path56" inkscape:connector-curvature="0" class="st0" d="M57.2,168H28.8c-4.4,0-7.9,4.3-7.9,9.5s3.5,9.5,7.9,9.5h28.3
			c4.4,0,7.9-4.3,7.9-9.5S61.5,168,57.2,168z"/>
		<path id="path58" inkscape:connector-curvature="0" class="st0" d="M57.6,165H28.4c-5.8,0-10.4,5.6-10.4,12.5S22.7,190,28.4,190
			h29.2c5.8,0,10.4-5.6,10.4-12.5S63.3,165,57.6,165z M57.2,188H28.8c-4.8,0-8.8-4.7-8.8-10.5s4-10.5,8.8-10.5h28.3
			c4.8,0,8.8,4.7,8.8,10.5S62,188,57.2,188z"/>
		<path id="path60" inkscape:connector-curvature="0" class="st1" d="M57.2,167H28.8c-4.8,0-8.8,4.7-8.8,10.5s4,10.5,8.8,10.5h28.3
			c4.8,0,8.8-4.7,8.8-10.5S62,167,57.2,167z M57.2,187H28.8c-4.4,0-7.9-4.3-7.9-9.5s3.5-9.5,7.9-9.5h28.3c4.4,0,7.9,4.3,7.9,9.5
			S61.5,187,57.2,187z"/>
	</g>
	<text id="text64" transform="matrix(1 0 0 1 -194.7142 170.0578)" style="font-family:'RobotoMono-Regular'; font-size:8px;">05 / 05</text>
</g>
<g id="g980" transform="translate(0,-275)">
	<g id="g82" transform="translate(-218.42409,-2.6965937)">
		<path id="path76" inkscape:connector-curvature="0" class="st0" d="M125.5,7c-6.9,0-12.5,5.6-12.5,12.5S118.6,32,125.5,32
			c6.9,0,12.5-5.6,12.5-12.5S132.4,7,125.5,7z M125.5,30c-5.8,0-10.5-4.7-10.5-10.5S119.7,9,125.5,9S136,13.7,136,19.5
			S131.3,30,125.5,30z"/>
		<circle id="circle78" class="st0" cx="125.5" cy="19.5" r="9.5"/>
		<path id="path80" inkscape:connector-curvature="0" class="st1" d="M125.5,9c-5.8,0-10.5,4.7-10.5,10.5S119.7,30,125.5,30
			S136,25.3,136,19.5S131.3,9,125.5,9z M125.5,29c-5.2,0-9.5-4.3-9.5-9.5s4.3-9.5,9.5-9.5s9.5,4.3,9.5,9.5S130.7,29,125.5,29z"/>
	</g>
	<polyline id="polyline92" class="st3" points="-98.1,14.2 -92.9,19.4 -87.8,14.3 	"/>
</g>
<text id="text24_2_" transform="matrix(1 0 0 1 2.9001 -20.1409)" style="font-family:'RobotoMono-Regular'; font-size:8px;">01 / 05</text>
<g class="st4">
	<path d="M12.4,12.7c0,0.4,0,0.7-0.1,1s-0.2,0.5-0.4,0.7s-0.3,0.3-0.6,0.4s-0.5,0.1-0.8,0.1c-0.3,0-0.5,0-0.8-0.1s-0.4-0.2-0.6-0.4
		s-0.3-0.4-0.4-0.7s-0.1-0.6-0.1-1v-1.3c0-0.4,0-0.7,0.1-1S9,9.9,9.2,9.7s0.4-0.3,0.6-0.4s0.5-0.2,0.8-0.2c0.3,0,0.6,0,0.8,0.2
		s0.4,0.2,0.6,0.4s0.3,0.4,0.4,0.7s0.1,0.6,0.1,1V12.7z M9.4,12.5l2.2-1.7c0-0.4-0.2-0.7-0.3-0.9s-0.4-0.3-0.8-0.3
		c-0.4,0-0.7,0.1-0.8,0.4s-0.3,0.6-0.3,1.1V12.5z M11.7,11.5l-2.2,1.7c0,0.4,0.2,0.6,0.3,0.8s0.4,0.3,0.8,0.3c0.4,0,0.7-0.1,0.8-0.4
		s0.3-0.6,0.3-1.1V11.5z"/>
	<path d="M13.9,12l0.3-2.8h2.9v0.7h-2.3l-0.2,1.5c0.1-0.1,0.2-0.1,0.4-0.2s0.3-0.1,0.5-0.1c0.3,0,0.5,0,0.7,0.1s0.4,0.2,0.5,0.4
		s0.3,0.4,0.3,0.6s0.1,0.5,0.1,0.8c0,0.3,0,0.5-0.1,0.8s-0.2,0.4-0.3,0.6s-0.3,0.3-0.6,0.4s-0.5,0.1-0.8,0.1c-0.2,0-0.5,0-0.7-0.1
		s-0.4-0.2-0.5-0.3S14,14.2,13.9,14s-0.2-0.4-0.2-0.7h0.7c0,0.3,0.2,0.6,0.4,0.7s0.4,0.3,0.7,0.3c0.2,0,0.3,0,0.5-0.1
		s0.2-0.1,0.3-0.3s0.2-0.2,0.2-0.4s0.1-0.3,0.1-0.5c0-0.2,0-0.3-0.1-0.5s-0.1-0.3-0.2-0.4s-0.2-0.2-0.4-0.3s-0.3-0.1-0.5-0.1
		c-0.1,0-0.2,0-0.3,0s-0.2,0-0.2,0.1s-0.1,0.1-0.2,0.1s-0.1,0.1-0.2,0.2L13.9,12z"/>
	<path d="M24.2,15.3h-0.6l2.4-6.2h0.6L24.2,15.3z"/>
	<path d="M36.4,12.7c0,0.4,0,0.7-0.1,1c-0.1,0.3-0.2,0.5-0.4,0.7s-0.3,0.3-0.6,0.4s-0.5,0.1-0.8,0.1c-0.3,0-0.5,0-0.8-0.1
		c-0.2-0.1-0.4-0.2-0.6-0.4c-0.2-0.2-0.3-0.4-0.4-0.7c-0.1-0.3-0.1-0.6-0.1-1v-1.3c0-0.4,0-0.7,0.1-1c0.1-0.3,0.2-0.5,0.4-0.7
		c0.2-0.2,0.3-0.3,0.6-0.4c0.2-0.1,0.5-0.2,0.8-0.2c0.3,0,0.6,0,0.8,0.2c0.2,0.1,0.4,0.2,0.6,0.4c0.2,0.2,0.3,0.4,0.4,0.7
		c0.1,0.3,0.1,0.6,0.1,1V12.7z M33.4,12.5l2.2-1.7c0-0.4-0.2-0.7-0.3-0.9c-0.2-0.2-0.4-0.3-0.8-0.3c-0.4,0-0.7,0.1-0.8,0.4
		c-0.2,0.3-0.3,0.6-0.3,1.1V12.5z M35.7,11.5l-2.2,1.7c0,0.4,0.2,0.6,0.3,0.8c0.2,0.2,0.4,0.3,0.8,0.3c0.4,0,0.7-0.1,0.8-0.4
		c0.2-0.3,0.3-0.6,0.3-1.1V11.5z"/>
	<path d="M37.9,12l0.3-2.8h2.9v0.7h-2.3l-0.2,1.5c0.1-0.1,0.2-0.1,0.4-0.2s0.3-0.1,0.5-0.1c0.3,0,0.5,0,0.7,0.1
		c0.2,0.1,0.4,0.2,0.5,0.4c0.1,0.2,0.3,0.4,0.3,0.6s0.1,0.5,0.1,0.8c0,0.3,0,0.5-0.1,0.8c-0.1,0.2-0.2,0.4-0.3,0.6
		c-0.1,0.2-0.3,0.3-0.6,0.4c-0.2,0.1-0.5,0.1-0.8,0.1c-0.2,0-0.5,0-0.7-0.1c-0.2-0.1-0.4-0.2-0.5-0.3S38,14.2,37.9,14
		c-0.1-0.2-0.2-0.4-0.2-0.7h0.7c0,0.3,0.2,0.6,0.4,0.7c0.2,0.2,0.4,0.3,0.7,0.3c0.2,0,0.3,0,0.5-0.1s0.2-0.1,0.3-0.3
		s0.2-0.2,0.2-0.4c0-0.2,0.1-0.3,0.1-0.5c0-0.2,0-0.3-0.1-0.5s-0.1-0.3-0.2-0.4c-0.1-0.1-0.2-0.2-0.4-0.3s-0.3-0.1-0.5-0.1
		c-0.1,0-0.2,0-0.3,0c-0.1,0-0.2,0-0.2,0.1s-0.1,0.1-0.2,0.1c-0.1,0-0.1,0.1-0.2,0.2L37.9,12z"/>
</g>
</svg>
