<?xml version="1.0" encoding="UTF-8" standalone="no"?>
<!-- Generator: Adobe Illustrator 23.0.1, SVG Export Plug-In . SVG Version: 6.00 Build 0)  -->

<svg
   xmlns:dc="http://purl.org/dc/elements/1.1/"
   xmlns:cc="http://creativecommons.org/ns#"
   xmlns:rdf="http://www.w3.org/1999/02/22-rdf-syntax-ns#"
   xmlns:svg="http://www.w3.org/2000/svg"
   xmlns="http://www.w3.org/2000/svg"
   xmlns:sodipodi="http://sodipodi.sourceforge.net/DTD/sodipodi-0.dtd"
   xmlns:inkscape="http://www.inkscape.org/namespaces/inkscape"
   version="1.1"
   id="Layer_1"
   x="0px"
   y="0px"
   viewBox="0 0 25 25"
   xml:space="preserve"
   sodipodi:docname="arrow2.svg"
   width="25"
   height="25"
   inkscape:version="0.92.3 (2405546, 2018-03-11)"><metadata
   id="metadata99"><rdf:RDF><cc:Work
       rdf:about=""><dc:format>image/svg+xml</dc:format><dc:type
         rdf:resource="http://purl.org/dc/dcmitype/StillImage" /><dc:title></dc:title></cc:Work></rdf:RDF></metadata><defs
   id="defs97">
	
	
	
</defs><sodipodi:namedview
   pagecolor="#ffffff"
   bordercolor="#666666"
   borderopacity="1"
   objecttolerance="10"
   gridtolerance="10"
   guidetolerance="10"
   inkscape:pageopacity="0"
   inkscape:pageshadow="2"
   inkscape:window-width="1920"
   inkscape:window-height="1001"
   id="namedview95"
   showgrid="false"
   inkscape:zoom="8.9001175"
   inkscape:cx="32.869896"
   inkscape:cy="3.6030931"
   inkscape:window-x="-9"
   inkscape:window-y="-9"
   inkscape:window-maximized="1"
   inkscape:current-layer="Layer_1" />
<style
   type="text/css"
   id="style2">
	.st0{fill:#3EFF8C;}
	.st1{fill:#FFFFFF;}
	.st2{fill:none;stroke:#FFFFFF;stroke-miterlimit:10;}
	.st3{font-family:'RobotoMono-Regular';}
	.st4{font-size:8px;}
	.st5{fill:none;stroke:#000000;stroke-width:0.5;stroke-miterlimit:10;}
</style>




<g
   id="g987"
   transform="translate(-200.57064,-7.2022709)"><g
   id="g10">
	<path
   id="path4"
   d="M 58.17,12 H 29.83 c -4.37,0 -7.92,4.26 -7.92,9.5 0,5.24 3.55,9.5 7.92,9.5 h 28.33 c 4.37,0 7.92,-4.26 7.92,-9.5 0,-5.24 -3.55,-9.5 -7.91,-9.5 z"
   class="st0"
   inkscape:connector-curvature="0"
   style="fill:#3eff8c" />
	<path
   id="path6"
   d="M 58.58,9 H 29.42 C 23.66,9 19,14.6 19,21.5 19,28.4 23.66,34 29.42,34 H 58.59 C 64.34,34 69,28.4 69,21.5 69,14.6 64.34,9 58.58,9 Z M 58.17,32 H 29.83 c -4.82,0 -8.75,-4.71 -8.75,-10.5 0,-5.79 3.93,-10.5 8.75,-10.5 h 28.33 c 4.82,0 8.75,4.71 8.75,10.5 0,5.79 -3.92,10.5 -8.74,10.5 z"
   class="st0"
   inkscape:connector-curvature="0"
   style="fill:#3eff8c" />
	<path
   id="path8"
   d="M 58.17,11 H 29.83 c -4.82,0 -8.75,4.71 -8.75,10.5 0,5.79 3.93,10.5 8.75,10.5 h 28.33 c 4.82,0 8.75,-4.71 8.75,-10.5 0,-5.79 -3.92,-10.5 -8.74,-10.5 z m 0,20 H 29.83 c -4.37,0 -7.92,-4.26 -7.92,-9.5 0,-5.24 3.55,-9.5 7.92,-9.5 h 28.33 c 4.37,0 7.92,4.26 7.92,9.5 0,5.24 -3.55,9.5 -7.91,9.5 z"
   class="st1"
   inkscape:connector-curvature="0"
   style="fill:#ffffff" />
</g><text
   style="font-size:8px;font-family:RobotoMono-Regular"
   y="23.945312"
   x="29.199219"
   id="text24"
   class="st3 st4">01 / 05</text>


</g>

<g
   id="g996"
   transform="translate(-49.561394,-74.864801)"><path
   class="st0"
   d="m -164.74841,40.11249 h -28.34 c -4.37,0 -7.92,4.26 -7.92,9.5 0,5.24 3.55,9.5 7.92,9.5 h 28.33 c 4.37,0 7.92,-4.26 7.92,-9.5 0,-5.24 -3.55,-9.5 -7.91,-9.5 z"
   id="path26"
   inkscape:connector-curvature="0"
   style="fill:#3eff8c" /><path
   class="st0"
   d="m -164.33841,37.11249 h -29.16 c -5.76,0 -10.42,5.6 -10.42,12.5 0,6.9 4.66,12.5 10.42,12.5 h 29.17 c 5.75,0 10.41,-5.6 10.41,-12.5 0,-6.9 -4.66,-12.5 -10.42,-12.5 z m -0.41,23 h -28.34 c -4.82,0 -8.75,-4.71 -8.75,-10.5 0,-5.79 3.93,-10.5 8.75,-10.5 h 28.33 c 4.82,0 8.75,4.71 8.75,10.5 0,5.79 -3.92,10.5 -8.74,10.5 z"
   id="path28"
   inkscape:connector-curvature="0"
   style="fill:#3eff8c" /><path
   class="st1"
   d="m -164.74841,39.11249 h -28.34 c -4.82,0 -8.75,4.71 -8.75,10.5 0,5.79 3.93,10.5 8.75,10.5 h 28.33 c 4.82,0 8.75,-4.71 8.75,-10.5 0,-5.79 -3.92,-10.5 -8.74,-10.5 z m 0,20 h -28.34 c -4.37,0 -7.92,-4.26 -7.92,-9.5 0,-5.24 3.55,-9.5 7.92,-9.5 h 28.33 c 4.37,0 7.92,4.26 7.92,9.5 0,5.24 -3.55,9.5 -7.91,9.5 z"
   id="path30"
   inkscape:connector-curvature="0"
   style="fill:#ffffff" /><text
   style="font-size:8px;font-family:RobotoMono-Regular"
   y="52.057804"
   x="-193.71919"
   id="text34"
   class="st3 st4">02 / 05</text>


</g>

<g
   id="g1003"
   transform="translate(14.51163,-127.32435)"><g
   transform="translate(-222.91841,-9.8875101)"
   id="g42">
	<path
   style="fill:#3eff8c"
   inkscape:connector-curvature="0"
   id="path36"
   d="M 58.17,90 H 29.83 c -4.37,0 -7.92,4.26 -7.92,9.5 0,5.24 3.55,9.5 7.92,9.5 h 28.33 c 4.37,0 7.92,-4.26 7.92,-9.5 0,-5.24 -3.55,-9.5 -7.91,-9.5 z"
   class="st0" />
	<path
   style="fill:#3eff8c"
   inkscape:connector-curvature="0"
   id="path38"
   d="M 58.58,87 H 29.42 C 23.66,87 19,92.6 19,99.5 19,106.4 23.66,112 29.42,112 H 58.59 C 64.34,112 69,106.4 69,99.5 69,92.6 64.34,87 58.58,87 Z m -0.41,23 H 29.83 c -4.82,0 -8.75,-4.71 -8.75,-10.5 0,-5.79 3.93,-10.5 8.75,-10.5 h 28.33 c 4.82,0 8.75,4.71 8.75,10.5 0,5.79 -3.92,10.5 -8.74,10.5 z"
   class="st0" />
	<path
   style="fill:#ffffff"
   inkscape:connector-curvature="0"
   id="path40"
   d="M 58.17,89 H 29.83 c -4.82,0 -8.75,4.71 -8.75,10.5 0,5.79 3.93,10.5 8.75,10.5 h 28.33 c 4.82,0 8.75,-4.71 8.75,-10.5 0,-5.79 -3.92,-10.5 -8.74,-10.5 z m 0,20 H 29.83 c -4.37,0 -7.92,-4.26 -7.92,-9.5 0,-5.24 3.55,-9.5 7.92,-9.5 h 28.33 c 4.37,0 7.92,4.26 7.92,9.5 0,5.24 -3.55,9.5 -7.91,9.5 z"
   class="st1" />
</g><text
   style="font-size:8px;font-family:RobotoMono-Regular"
   y="92.0578"
   x="-193.71919"
   id="text44"
   class="st3 st4">03 / 05</text>


</g>

<g
   id="g1015"
   transform="translate(-56.67981,-68.900626)"><g
   transform="translate(-222.91841,-9.8875101)"
   id="g52">
	<path
   style="fill:#3eff8c"
   inkscape:connector-curvature="0"
   id="path46"
   d="M 58.17,132 H 29.83 c -4.37,0 -7.92,4.26 -7.92,9.5 0,5.24 3.55,9.5 7.92,9.5 h 28.33 c 4.37,0 7.92,-4.26 7.92,-9.5 0,-5.24 -3.55,-9.5 -7.91,-9.5 z"
   class="st0" />
	<path
   style="fill:#3eff8c"
   inkscape:connector-curvature="0"
   id="path48"
   d="M 58.58,129 H 29.42 C 23.66,129 19,134.6 19,141.5 c 0,6.9 4.66,12.5 10.42,12.5 h 29.17 c 5.75,0 10.42,-5.6 10.42,-12.5 0,-6.9 -4.67,-12.5 -10.43,-12.5 z m -0.41,23 H 29.83 c -4.82,0 -8.75,-4.71 -8.75,-10.5 0,-5.79 3.93,-10.5 8.75,-10.5 h 28.33 c 4.82,0 8.75,4.71 8.75,10.5 0,5.79 -3.92,10.5 -8.74,10.5 z"
   class="st0" />
	<path
   style="fill:#ffffff"
   inkscape:connector-curvature="0"
   id="path50"
   d="M 58.17,131 H 29.83 c -4.82,0 -8.75,4.71 -8.75,10.5 0,5.79 3.93,10.5 8.75,10.5 h 28.33 c 4.82,0 8.75,-4.71 8.75,-10.5 0,-5.79 -3.92,-10.5 -8.74,-10.5 z m 0,20 H 29.83 c -4.37,0 -7.92,-4.26 -7.92,-9.5 0,-5.24 3.55,-9.5 7.92,-9.5 h 28.33 c 4.37,0 7.92,4.26 7.92,9.5 0,5.24 -3.55,9.5 -7.91,9.5 z"
   class="st1" />
</g><text
   style="font-size:8px;font-family:RobotoMono-Regular"
   y="134.0578"
   x="-193.71419"
   id="text54"
   class="st3 st4">04 / 05</text>


</g>

<g
   id="g1027"
   transform="translate(-13.095065,-253.62944)"><g
   transform="translate(-222.91841,-9.8875101)"
   id="g62">
	<path
   style="fill:#3eff8c"
   inkscape:connector-curvature="0"
   id="path56"
   d="M 57.17,168 H 28.83 c -4.37,0 -7.92,4.26 -7.92,9.5 0,5.24 3.55,9.5 7.92,9.5 h 28.33 c 4.37,0 7.92,-4.26 7.92,-9.5 0,-5.24 -3.55,-9.5 -7.91,-9.5 z"
   class="st0" />
	<path
   style="fill:#3eff8c"
   inkscape:connector-curvature="0"
   id="path58"
   d="M 57.58,165 H 28.42 C 22.66,165 18,170.6 18,177.5 c 0,6.9 4.66,12.5 10.42,12.5 h 29.17 c 5.75,0 10.42,-5.6 10.42,-12.5 0,-6.9 -4.67,-12.5 -10.43,-12.5 z m -0.41,23 H 28.83 c -4.82,0 -8.75,-4.71 -8.75,-10.5 0,-5.79 3.93,-10.5 8.75,-10.5 h 28.33 c 4.82,0 8.75,4.71 8.75,10.5 0,5.79 -3.92,10.5 -8.74,10.5 z"
   class="st0" />
	<path
   style="fill:#ffffff"
   inkscape:connector-curvature="0"
   id="path60"
   d="M 57.17,167 H 28.83 c -4.82,0 -8.75,4.71 -8.75,10.5 0,5.79 3.93,10.5 8.75,10.5 h 28.33 c 4.82,0 8.75,-4.71 8.75,-10.5 0,-5.79 -3.92,-10.5 -8.74,-10.5 z m 0,20 H 28.83 c -4.37,0 -7.92,-4.26 -7.92,-9.5 0,-5.24 3.55,-9.5 7.92,-9.5 h 28.33 c 4.37,0 7.92,4.26 7.92,9.5 0,5.24 -3.55,9.5 -7.91,9.5 z"
   class="st1" />
</g><text
   style="font-size:8px;font-family:RobotoMono-Regular"
   y="170.0578"
   x="-194.71419"
   id="text64"
   class="st3 st4">05 / 05</text>


</g>




<g
   id="g82"
   transform="translate(-113,-7)">
	<path
   class="st0"
   d="M 125.5,7 C 118.6,7 113,12.6 113,19.5 113,26.4 118.6,32 125.5,32 132.4,32 138,26.4 138,19.5 138,12.6 132.4,7 125.5,7 Z m 0,23 C 119.71,30 115,25.29 115,19.5 115,13.71 119.71,9 125.5,9 131.29,9 136,13.71 136,19.5 136,25.29 131.29,30 125.5,30 Z"
   id="path76"
   inkscape:connector-curvature="0"
   style="fill:#3eff8c" />
	<circle
   class="st0"
   cx="125.5"
   cy="19.5"
   r="9.5"
   id="circle78"
   style="fill:#3eff8c" />
	<path
   class="st1"
   d="M 125.5,9 C 119.71,9 115,13.71 115,19.5 115,25.29 119.71,30 125.5,30 131.29,30 136,25.29 136,19.5 136,13.71 131.29,9 125.5,9 Z m 0,20 c -5.24,0 -9.5,-4.26 -9.5,-9.5 0,-5.24 4.26,-9.5 9.5,-9.5 5.24,0 9.5,4.26 9.5,9.5 0,5.24 -4.26,9.5 -9.5,9.5 z"
   id="path80"
   inkscape:connector-curvature="0"
   style="fill:#ffffff" />
</g><path
   inkscape:connector-curvature="0"
   style="fill:none;stroke:#000000;stroke-width:0.5;stroke-miterlimit:10"
   d="M 9.8316113,17.63 14.991612,12.47 9.8916113,7.3700001"
   id="polyline92" />
</svg>