<?xml version="1.0" encoding="UTF-8" standalone="no"?>
<!-- Generator: Adobe Illustrator 23.0.1, SVG Export Plug-In . SVG Version: 6.00 Build 0)  -->

<svg
   xmlns:dc="http://purl.org/dc/elements/1.1/"
   xmlns:cc="http://creativecommons.org/ns#"
   xmlns:rdf="http://www.w3.org/1999/02/22-rdf-syntax-ns#"
   xmlns:svg="http://www.w3.org/2000/svg"
   xmlns="http://www.w3.org/2000/svg"
   xmlns:sodipodi="http://sodipodi.sourceforge.net/DTD/sodipodi-0.dtd"
   xmlns:inkscape="http://www.inkscape.org/namespaces/inkscape"
   version="1.1"
   id="Layer_1"
   x="0px"
   y="0px"
   viewBox="0 0 1200 276"
   style="enable-background:new 0 0 1200 276;"
   xml:space="preserve"
   sodipodi:docname="graph.svg"
   inkscape:version="0.92.3 (2405546, 2018-03-11)"><metadata
   id="metadata135"><rdf:RDF><cc:Work
       rdf:about=""><dc:format>image/svg+xml</dc:format><dc:type
         rdf:resource="http://purl.org/dc/dcmitype/StillImage" /><dc:title></dc:title></cc:Work></rdf:RDF></metadata><defs
   id="defs133" /><sodipodi:namedview
   pagecolor="#ffffff"
   bordercolor="#666666"
   borderopacity="1"
   objecttolerance="10"
   gridtolerance="10"
   guidetolerance="10"
   inkscape:pageopacity="0"
   inkscape:pageshadow="2"
   inkscape:window-width="1920"
   inkscape:window-height="1001"
   id="namedview131"
   showgrid="false"
   inkscape:zoom="0.94045202"
   inkscape:cx="243.21081"
   inkscape:cy="101.66514"
   inkscape:window-x="-9"
   inkscape:window-y="-9"
   inkscape:window-maximized="1"
   inkscape:current-layer="Layer_1" />
<style
   type="text/css"
   id="style2">
	.st0{fill:#3EFF8C;}
</style>
<g
   id="g128"
   style="opacity:0.75">
	<path
   class="st0"
   d="M354.78,143.41c0.13,0.45,0.22,0.91,0.22,1.4c0,2.76-2.24,5-5,5c-1.24,0-2.35-0.47-3.23-1.21l-7.95,6.2   c2.75,3.07,6.73,5.02,11.17,5.02c8.28,0,15-6.72,15-15c0-2.18-0.48-4.25-1.31-6.12L354.78,143.41z"
   id="path4"
   style="" />
	<path
   class="st0"
   d="M345.01,144.81c0-2.76,2.24-5,5-5c1.55,0,2.92,0.72,3.84,1.83l8.91-4.72c-2.65-4.26-7.36-7.11-12.74-7.11   c-8.28,0-15,6.72-15,15c0,3.12,0.95,6.02,2.58,8.42l7.95-6.2C345.21,146.35,345.01,145.6,345.01,144.81z"
   id="path6"
   style="" />
	<path
   class="st0"
   d="M250.01,217.81c1.24,0,2.35,0.47,3.23,1.21l7.94-6.2c-2.75-3.07-6.73-5.02-11.17-5.02   c-7.95,0-14.43,6.18-14.95,14h10.05C245.57,219.53,247.59,217.81,250.01,217.81z"
   id="path8"
   style="" />
	<path
   class="st0"
   d="M255.01,222.81c0,2.76-2.24,5-5,5c-2.41,0-4.43-1.72-4.9-4h-10.05c0.52,7.82,7,14,14.95,14   c8.28,0,15-6.72,15-15c0-3.12-0.95-6.02-2.58-8.42l-7.95,6.2C254.8,221.27,255.01,222.01,255.01,222.81z"
   id="path10"
   style="" />
	<path
   class="st0"
   d="M150.01,217.81c2.41,0,4.43,1.72,4.9,4h10.05c-0.52-7.82-7-14-14.95-14c-5.6,0-10.48,3.08-13.05,7.63   l9.09,4.36C146.96,218.6,148.39,217.81,150.01,217.81z"
   id="path12"
   style="" />
	<path
   class="st0"
   d="M150.01,227.81c-2.76,0-5-2.24-5-5c0-0.42,0.07-0.82,0.17-1.21l-9.08-4.36c-0.69,1.72-1.08,3.6-1.08,5.57   c0,8.28,6.72,15,15,15c7.95,0,14.43-6.18,14.95-14h-10.05C154.44,226.09,152.42,227.81,150.01,227.81z"
   id="path14"
   style="" />
	<path
   class="st0"
   d="M50.01,169.81c2.76,0,5,2.24,5,5c0,0.42-0.07,0.82-0.17,1.21l9.08,4.36c0.69-1.72,1.08-3.6,1.08-5.57   c0-8.28-6.72-15-15-15c-2.97,0-5.73,0.87-8.06,2.36l5.97,8.11C48.56,169.98,49.26,169.81,50.01,169.81z"
   id="path16"
   style="" />
	<path
   class="st0"
   d="M50.01,179.81c-2.76,0-5-2.24-5-5c0-1.29,0.5-2.45,1.3-3.34l-5.98-8.12c-3.25,2.75-5.33,6.86-5.33,11.45   c0,8.28,6.72,15,15,15c5.6,0,10.48-3.08,13.05-7.63l-9.09-4.36C53.06,179.02,51.63,179.81,50.01,179.81z"
   id="path18"
   style="" />
	<path
   class="st0"
   d="M-2.19,102.21l-1.61,1.19l44.13,59.95c0.51-0.43,1.05-0.82,1.61-1.18L-2.19,102.21z"
   id="path20"
   style="" />
	<path
   class="st0"
   d="M47.92,170.28l-5.97-8.11c-0.56,0.36-1.1,0.75-1.61,1.18l5.98,8.12C46.76,170.97,47.3,170.57,47.92,170.28z"
   id="path22"
   style="" />
	<path
   class="st0"
   d="M63.93,180.38c-0.25,0.62-0.54,1.22-0.87,1.8l73.03,35.05c0.25-0.62,0.54-1.22,0.87-1.8L63.93,180.38z"
   id="path24"
   style="" />
	<path
   class="st0"
   d="M146.04,219.8l-9.09-4.36c-0.33,0.58-0.62,1.18-0.87,1.8l9.08,4.36C145.34,220.93,145.64,220.32,146.04,219.8z   "
   id="path26"
   style="" />
	<path
   class="st0"
   d="M54.84,176.02c-0.17,0.66-0.47,1.27-0.87,1.8l9.09,4.36c0.33-0.58,0.62-1.18,0.87-1.8L54.84,176.02z"
   id="path28"
   style="" />
	<path
   class="st0"
   d="M235.06,221.81h-70.1c0.02,0.33,0.05,0.66,0.05,1s-0.03,0.67-0.05,1h70.1c-0.02-0.33-0.05-0.66-0.05-1   S235.04,222.14,235.06,221.81z"
   id="path30"
   style="" />
	<path
   class="st0"
   d="M245.01,222.81c0-0.34,0.04-0.68,0.1-1h-10.05c-0.02,0.33-0.05,0.66-0.05,1s0.03,0.67,0.05,1h10.05   C245.04,223.48,245.01,223.15,245.01,222.81z"
   id="path32"
   style="" />
	<path
   class="st0"
   d="M164.96,221.81h-10.05c0.07,0.32,0.1,0.66,0.1,1s-0.04,0.68-0.1,1h10.05c0.02-0.33,0.05-0.66,0.05-1   S164.98,222.14,164.96,221.81z"
   id="path34"
   style="" />
	<path
   class="st0"
   d="M261.18,212.82c0.44,0.5,0.87,1.01,1.24,1.57l76.41-59.6c-0.44-0.5-0.87-1.01-1.24-1.57L261.18,212.82z"
   id="path36"
   style="" />
	<path
   class="st0"
   d="M345.55,147.02l-7.95,6.2c0.38,0.55,0.8,1.07,1.24,1.57l7.95-6.2C346.27,148.16,345.85,147.63,345.55,147.02z"
   id="path38"
   style="" />
	<path
   class="st0"
   d="M253.24,219.02c0.51,0.44,0.93,0.97,1.23,1.57l7.95-6.2c-0.38-0.55-0.8-1.07-1.24-1.57L253.24,219.02z"
   id="path40"
   style="" />
	<path
   class="st0"
   d="M354.78,143.41l8.91-4.72c-0.27-0.61-0.59-1.2-0.94-1.76l-8.91,4.72   C354.27,142.16,354.59,142.75,354.78,143.41z"
   id="path42"
   style="" />
	<g
   id="g126"
   style="">
		<path
   class="st0"
   d="M1145.01,76.81c0-2.76,2.24-5,5-5c0.8,0,1.54,0.2,2.21,0.54l6.2-7.96c-2.4-1.63-5.29-2.58-8.41-2.58    c-8.28,0-15,6.72-15,15c0,2.77,0.76,5.35,2.07,7.58l8.32-5.65C1145.15,78.14,1145.01,77.49,1145.01,76.81z"
   id="path44"
   style="" />
		<path
   class="st0"
   d="M1159.99,65.63l-6.19,7.95c0.75,0.87,1.21,1.99,1.21,3.23c0,2.76-2.24,5-5,5c-1.35,0-2.58-0.55-3.48-1.42    l-8.32,5.66c2.75,3.5,7.01,5.76,11.8,5.76c8.28,0,15-6.72,15-15C1165.01,72.36,1163.06,68.38,1159.99,65.63z"
   id="path46"
   style="" />
		<path
   class="st0"
   d="M1045.01,144.81c0-2.76,2.24-5,5-5c1.35,0,2.58,0.55,3.48,1.42l8.32-5.66c-2.75-3.5-7.01-5.76-11.8-5.76    c-8.28,0-15,6.72-15,15c0,2.14,0.46,4.17,1.26,6.02l8.95-4.65C1045.1,145.73,1045.01,145.28,1045.01,144.81z"
   id="path48"
   style="" />
		<path
   class="st0"
   d="M1055.01,144.81c0,2.76-2.24,5-5,5c-1.56,0-2.95-0.74-3.86-1.86l-8.94,4.65c2.63,4.32,7.37,7.22,12.8,7.22    c8.28,0,15-6.72,15-15c0-2.77-0.76-5.35-2.07-7.58l-8.32,5.65C1054.87,143.47,1055.01,144.12,1055.01,144.81z"
   id="path50"
   style="" />
		<path
   class="st0"
   d="M955.01,196.81c0,2.76-2.24,5-5,5s-5-2.24-5-5c0-0.03,0.01-0.05,0.01-0.07l-9.82-2.16    c-0.11,0.73-0.18,1.47-0.18,2.24c0,8.28,6.72,15,15,15s15-6.72,15-15c0-2.14-0.46-4.17-1.26-6.02l-8.95,4.65    C954.92,195.88,955.01,196.33,955.01,196.81z"
   id="path52"
   style="" />
		<path
   class="st0"
   d="M950.01,191.81c1.56,0,2.94,0.74,3.86,1.86l8.94-4.65c-2.63-4.32-7.37-7.21-12.8-7.21    c-6.83,0-12.58,4.57-14.4,10.81l9.83,2.16C946.23,193.03,947.97,191.81,950.01,191.81z"
   id="path54"
   style="" />
		<path
   class="st0"
   d="M850.01,169.81c2.76,0,5,2.24,5,5c0,0.03-0.01,0.05-0.01,0.07l9.82,2.16c0.11-0.73,0.18-1.47,0.18-2.24    c0-8.28-6.72-15-15-15c-7.54,0-13.76,5.57-14.82,12.81l10.04,0.8C845.83,171.34,847.74,169.81,850.01,169.81z"
   id="path56"
   style="" />
		<path
   class="st0"
   d="M850.01,179.81c-2.55,0-4.63-1.92-4.94-4.39l-10.05-0.8c0,0.07-0.01,0.13-0.01,0.2c0,8.28,6.72,15,15,15    c6.83,0,12.58-4.57,14.4-10.81l-9.83-2.16C853.79,178.58,852.04,179.81,850.01,179.81z"
   id="path58"
   style="" />
		<path
   class="st0"
   d="M745.01,166.81c0-2.76,2.24-5,5-5c2.55,0,4.63,1.92,4.94,4.39L765,167c0-0.07,0.01-0.13,0.01-0.2    c0-8.28-6.72-15-15-15s-15,6.72-15,15c0,3.38,1.13,6.48,3.01,8.99l7.64-6.57C745.26,168.51,745.01,167.69,745.01,166.81z"
   id="path60"
   style="" />
		<path
   class="st0"
   d="M750.01,171.81c-1.15,0-2.2-0.41-3.04-1.06l-7.65,6.58c2.72,2.77,6.5,4.49,10.69,4.49    c7.54,0,13.76-5.57,14.82-12.81l-10.04-0.8C754.18,170.27,752.28,171.81,750.01,171.81z"
   id="path62"
   style="" />
		<path
   class="st0"
   d="M655.01,252.81c0,2.76-2.24,5-5,5s-5-2.24-5-5c0-0.62,0.13-1.21,0.34-1.76l-8.53-5.38    c-1.15,2.12-1.8,4.55-1.8,7.13c0,8.28,6.72,15,15,15s15-6.72,15-15c0-3.38-1.13-6.48-3.01-8.99l-7.64,6.57    C654.76,251.11,655.01,251.92,655.01,252.81z"
   id="path64"
   style="" />
		<path
   class="st0"
   d="M650.01,247.81c1.15,0,2.2,0.41,3.04,1.06l7.65-6.58c-2.72-2.77-6.5-4.49-10.69-4.49    c-4.99,0-9.39,2.44-12.12,6.18l8.52,5.36C647.32,248.41,648.59,247.81,650.01,247.81z"
   id="path66"
   style="" />
		<path
   class="st0"
   d="M550.01,194.81c-2.76,0-5-2.24-5-5c0-1,0.3-1.93,0.81-2.71l-7.19-7.05c-2.25,2.62-3.62,6.03-3.62,9.75    c0,8.28,6.72,15,15,15c4.99,0,9.39-2.44,12.12-6.18l-8.52-5.36C552.7,194.21,551.43,194.81,550.01,194.81z"
   id="path68"
   style="" />
		<path
   class="st0"
   d="M550.01,184.81c2.76,0,5,2.24,5,5c0,0.62-0.13,1.21-0.34,1.76l8.53,5.38c1.15-2.12,1.8-4.55,1.8-7.13    c0-8.28-6.72-15-15-15c-3.84,0-7.33,1.45-9.98,3.82l7.18,7.04C548.01,185.12,548.97,184.81,550.01,184.81z"
   id="path70"
   style="" />
		<path
   class="st0"
   d="M450.01,96.81c-1.55,0-2.92-0.72-3.84-1.83l-8.91,4.72c2.65,4.26,7.36,7.11,12.74,7.11    c3.84,0,7.33-1.45,9.98-3.82l-7.18-7.04C452.01,96.49,451.04,96.81,450.01,96.81z"
   id="path72"
   style="" />
		<path
   class="st0"
   d="M445.01,91.81c0-2.76,2.24-5,5-5c2.76,0,5,2.24,5,5c0,1-0.3,1.93-0.81,2.71l7.19,7.05    c2.25-2.62,3.62-6.03,3.62-9.75c0-8.28-6.72-15-15-15c-8.28,0-15,6.72-15,15c0,2.18,0.48,4.25,1.31,6.12l8.91-4.72    C445.1,92.76,445.01,92.3,445.01,91.81z"
   id="path74"
   style="" />
		<path
   class="st0"
   d="M362.75,136.92c0.35,0.57,0.67,1.15,0.94,1.76l73.57-38.99c-0.35-0.57-0.67-1.15-0.94-1.76L362.75,136.92z"
   id="path76"
   style="" />
		<path
   class="st0"
   d="M445.23,93.21l-8.91,4.72c0.27,0.61,0.59,1.2,0.94,1.76l8.91-4.72C445.75,94.46,445.43,93.86,445.23,93.21z"
   id="path78"
   style="" />
		<path
   class="st0"
   d="M461.39,101.56c-0.43,0.51-0.91,0.98-1.4,1.42l78.64,77.07c0.43-0.51,0.91-0.98,1.4-1.42L461.39,101.56z"
   id="path80"
   style="" />
		<path
   class="st0"
   d="M547.21,185.67l-7.18-7.04c-0.5,0.44-0.97,0.92-1.4,1.42l7.19,7.05    C546.18,186.53,546.65,186.04,547.21,185.67z"
   id="path82"
   style="" />
		<path
   class="st0"
   d="M454.2,94.52c-0.37,0.57-0.84,1.06-1.39,1.43l7.18,7.04c0.5-0.44,0.97-0.92,1.4-1.42L454.2,94.52z"
   id="path84"
   style="" />
		<path
   class="st0"
   d="M563.21,196.94c-0.32,0.59-0.69,1.14-1.08,1.68l74.68,47.05c0.32-0.59,0.69-1.14,1.08-1.68L563.21,196.94z"
   id="path86"
   style="" />
		<path
   class="st0"
   d="M646.41,249.36l-8.52-5.36c-0.39,0.54-0.76,1.09-1.08,1.68l8.53,5.38    C645.58,250.41,645.94,249.84,646.41,249.36z"
   id="path88"
   style="" />
		<path
   class="st0"
   d="M554.67,191.56c-0.24,0.64-0.6,1.21-1.06,1.69l8.52,5.36c0.39-0.54,0.76-1.09,1.08-1.68L554.67,191.56z"
   id="path90"
   style="" />
		<path
   class="st0"
   d="M660.7,242.29c0.47,0.48,0.89,0.99,1.3,1.52l77.32-66.5c-0.47-0.48-0.89-0.99-1.3-1.52L660.7,242.29z"
   id="path92"
   style="" />
		<path
   class="st0"
   d="M745.66,169.23l-7.64,6.57c0.4,0.53,0.83,1.05,1.3,1.52l7.65-6.58C746.43,170.33,745.99,169.82,745.66,169.23    z"
   id="path94"
   style="" />
		<path
   class="st0"
   d="M653.05,248.87c0.53,0.41,0.97,0.93,1.3,1.52l7.64-6.57c-0.4-0.53-0.83-1.05-1.3-1.52L653.05,248.87z"
   id="path96"
   style="" />
		<path
   class="st0"
   d="M765,167c-0.01,0.68-0.07,1.34-0.17,1.99l70.19,5.61c0.01-0.68,0.07-1.34,0.17-1.99L765,167z"
   id="path98"
   style="" />
		<path
   class="st0"
   d="M845.01,174.81c0-0.48,0.09-0.94,0.22-1.39l-10.04-0.8c-0.1,0.65-0.16,1.32-0.17,1.99l10.05,0.8    C845.04,175.21,845.01,175.02,845.01,174.81z"
   id="path100"
   style="" />
		<path
   class="st0"
   d="M754.95,166.2c0.02,0.2,0.06,0.4,0.06,0.61c0,0.48-0.09,0.94-0.22,1.39l10.04,0.8    c0.1-0.65,0.16-1.32,0.17-1.99L754.95,166.2z"
   id="path102"
   style="" />
		<path
   class="st0"
   d="M864.82,177.04c-0.1,0.67-0.24,1.32-0.42,1.96l70.79,15.57c0.1-0.67,0.24-1.32,0.42-1.96L864.82,177.04z"
   id="path104"
   style="" />
		<path
   class="st0"
   d="M945.45,194.78l-9.83-2.16c-0.18,0.63-0.32,1.29-0.42,1.96l9.82,2.16    C945.03,196.04,945.18,195.38,945.45,194.78z"
   id="path106"
   style="" />
		<path
   class="st0"
   d="M855,174.88c-0.01,0.69-0.16,1.35-0.43,1.95l9.83,2.16c0.18-0.63,0.32-1.29,0.42-1.96L855,174.88z"
   id="path108"
   style="" />
		<path
   class="st0"
   d="M962.81,189.02c0.35,0.57,0.66,1.16,0.93,1.77l73.46-38.2c-0.35-0.57-0.66-1.15-0.93-1.77L962.81,189.02z"
   id="path110"
   style="" />
		<path
   class="st0"
   d="M1045.22,146.17l-8.95,4.65c0.27,0.61,0.59,1.2,0.93,1.77l8.94-4.65    C1045.72,147.43,1045.41,146.83,1045.22,146.17z"
   id="path112"
   style="" />
		<path
   class="st0"
   d="M953.87,193.67c0.42,0.52,0.74,1.12,0.93,1.77l8.95-4.65c-0.27-0.61-0.59-1.2-0.93-1.77L953.87,193.67z"
   id="path114"
   style="" />
		<path
   class="st0"
   d="M1061.81,135.57c0.41,0.52,0.79,1.08,1.12,1.65l75.27-51.18c-0.41-0.52-0.79-1.08-1.12-1.65L1061.81,135.57z"
   id="path116"
   style="" />
		<path
   class="st0"
   d="M1145.4,78.73l-8.32,5.65c0.34,0.58,0.71,1.13,1.12,1.65l8.32-5.66C1146.05,79.92,1145.66,79.36,1145.4,78.73    z"
   id="path118"
   style="" />
		<path
   class="st0"
   d="M1053.49,141.23c0.48,0.47,0.87,1.02,1.13,1.65l8.32-5.65c-0.34-0.58-0.71-1.13-1.12-1.65L1053.49,141.23z"
   id="path120"
   style="" />
		<path
   class="st0"
   d="M1203.8,9.42l-1.58-1.23l-43.8,56.2c0.55,0.38,1.07,0.8,1.57,1.24L1203.8,9.42z"
   id="path122"
   style="" />
		<path
   class="st0"
   d="M1153.79,73.58l6.19-7.95c-0.5-0.44-1.01-0.87-1.57-1.24l-6.2,7.96    C1152.83,72.65,1153.36,73.07,1153.79,73.58z"
   id="path124"
   style="" />
	</g>
</g>
</svg>